<svg version="1.1" xmlns="http://www.w3.org/2000/svg" style="display: block;" viewBox="0 0 2048 2048" width="1024" height="1024" preserveAspectRatio="none">
<defs>
	<linearGradient id="Gradient1" gradientUnits="userSpaceOnUse" x1="1398.2" y1="1306.09" x2="1316.74" y2="1493.19">
		<stop class="stop0" offset="0" stop-opacity="1" stop-color="rgb(254,101,1)"/>
		<stop class="stop1" offset="1" stop-opacity="1" stop-color="rgb(234,30,41)"/>
	</linearGradient>
	<linearGradient id="Gradient2" gradientUnits="userSpaceOnUse" x1="1638" y1="1312" x2="1528.29" y2="1485.71">
		<stop class="stop0" offset="0" stop-opacity="1" stop-color="rgb(255,140,0)"/>
		<stop class="stop1" offset="1" stop-opacity="1" stop-color="rgb(244,61,15)"/>
	</linearGradient>
	<linearGradient id="Gradient3" gradientUnits="userSpaceOnUse" x1="957.129" y1="747.786" x2="964.052" y2="1173.37">
		<stop class="stop0" offset="0" stop-opacity="1" stop-color="rgb(251,92,0)"/>
		<stop class="stop1" offset="1" stop-opacity="1" stop-color="rgb(236,29,44)"/>
	</linearGradient>
</defs>
<path transform="translate(0,0)" fill="rgb(255,255,255)" d="M 0 0 L 2048 0 L 2048 2048 L 0 2048 L 0 0 z"/>
<path transform="translate(0,0)" fill="url(#Gradient3)" d="M 638.276 762.926 C 641.299 760.881 656.569 761.899 661.138 761.658 C 678.202 760.758 695.235 761.844 712.159 762.857 C 721.889 762.007 732.231 759.25 741.956 759.002 C 753.409 758.709 758.18 767.641 768.178 758.324 C 774.871 756.081 788.094 757.943 795.287 757.184 C 800.132 756.672 807.764 753.343 812.904 751.784 C 819.993 749.635 833.528 750.044 840.849 751.638 C 847.831 753.158 846.432 757.537 849.211 762.53 C 851.294 761.095 850.474 762.073 851.059 758.989 L 852.671 758.188 C 850.391 774.845 850.499 787.618 849.05 803.99 C 848.701 807.931 842.986 825.469 841.722 830.92 C 838.618 844.32 838.209 853.547 837.22 867.132 C 823.869 867.893 811.842 869.338 802.559 880.119 C 787.247 897.903 793.95 923.175 810.425 937.135 C 816.307 942.127 823.266 945.688 830.755 947.539 C 843.272 950.598 898.637 949.053 914.88 949.046 C 893.956 967.46 889.563 972.286 877.879 998.006 C 931.599 934.623 986.869 947.522 1058 955.248 C 1063.85 955.883 1072.98 954.161 1078.91 953.494 C 1092.03 949.6 1127.75 942.255 1126.71 965.88 C 1125.37 996.46 1066.01 1002.24 1044.17 1000.94 C 1002.8 998.486 964.404 1006.14 945.919 1047.35 C 989.07 1014.36 995.698 1034.9 1039.26 1044.62 C 1103.37 1059.31 1170.7 1045.51 1223.87 1006.79 C 1234.96 998.619 1256.43 976.325 1267.87 971.65 C 1288.97 963.026 1380.65 996.894 1369.75 1025.18 C 1355.79 1061.37 1302.35 1104.13 1268.34 1124.25 C 1185.74 1172.8 1087.26 1186.59 994.507 1162.58 C 920.588 1143.4 848.767 1098.91 800.216 1039.74 C 792.095 1029.93 784.533 1019.66 777.569 1008.99 C 772.935 1001.96 766.549 991.194 761.551 985.015 C 739.138 984.748 716.722 984.694 694.308 984.853 C 679.326 984.883 644.456 990.205 646.626 965.005 C 650.283 922.556 768.717 978.508 733.964 917.03 C 733.022 915.356 728.53 912.309 726.753 911.12 C 689.766 910.684 652.776 910.564 615.786 910.76 C 600.206 910.727 583.464 911.258 568.011 910.036 C 545.317 908.242 546.494 873.724 569.672 873.716 C 586.66 872.96 603.501 873.211 620.528 873.232 L 715.356 873.304 C 730.92 873.299 751.716 873.89 766.846 872.886 C 784.629 860.748 781.113 839.188 760.206 837.216 C 746.808 835.953 730.215 836.817 716.529 836.859 L 629.091 837.171 C 616.476 837.208 602.971 837.801 590.425 836.539 C 578.453 835.336 575.432 829.67 572.712 818.791 C 574.184 812.653 575.718 806.065 581.664 802.698 C 594.04 795.69 684.035 800.988 706.797 798.963 C 725.264 786.474 720.948 764.41 699.475 763.067 C 679.526 761.82 658.46 763.779 638.276 762.926 z"/>
<path transform="translate(0,0)" fill="rgb(254,126,5)" d="M 733.875 690.754 C 748.605 637.275 782.98 584.911 822.14 546.081 C 892.467 476.213 987.746 437.267 1086.88 437.867 C 1171.7 438.42 1267.12 469.089 1327.36 530.615 C 1338.26 542.699 1358.16 559.416 1358.27 576.728 C 1357.34 588.814 1339.95 600.238 1330.82 607.676 C 1315.29 620.322 1300.91 636.664 1283.22 645.825 C 1277.59 648.739 1271.61 648.158 1265.67 647.848 C 1256.6 642.576 1245.87 631.473 1237.3 624.24 C 1211.52 602.708 1181.42 586.967 1149.02 578.082 C 1063.06 555.076 976.868 577.787 913.903 641.358 C 880.599 674.982 864.363 713.178 852.671 758.188 L 851.059 758.989 C 850.474 762.073 851.294 761.095 849.211 762.53 C 846.432 757.537 847.831 753.158 840.849 751.638 C 833.528 750.044 819.993 749.635 812.904 751.784 C 807.764 753.343 800.132 756.672 795.287 757.184 C 788.094 757.943 774.871 756.081 768.178 758.324 C 758.18 767.641 753.409 758.709 741.956 759.002 C 732.231 759.25 721.889 762.007 712.159 762.857 C 695.235 761.844 678.202 760.758 661.138 761.658 C 656.569 761.899 641.299 760.881 638.276 762.926 C 629.858 763.239 612.229 764.596 606.767 756.835 C 603.39 751.965 602.1 745.948 603.182 740.122 C 604.135 734.948 608.308 728.986 613.127 727.9 C 625.194 725.182 643.714 726.058 656.347 726.05 L 756.769 726.003 C 768.753 725.977 799.911 728.564 809.039 722.198 C 820.098 714.486 816.573 692.793 799.649 691.372 C 777.836 689.541 755.972 691.384 733.875 690.754 z"/>
<path transform="translate(0,0)" fill="rgb(30,39,47)" d="M 1077.81 621.226 C 1094 620.438 1113.55 625.568 1111.54 645.627 C 1110.13 659.842 1096.57 655.258 1100.36 667.082 C 1100.7 668.157 1118.46 669.967 1120.43 670.407 C 1168.2 676.6 1213.33 701.383 1246.7 735.757 C 1281.58 771.704 1305.78 823.003 1305.11 873.845 C 1281.9 874.82 1253.32 874.062 1229.75 874.064 L 1089.5 874.088 L 860.552 874.304 C 859.464 774.556 944.183 684.101 1041.31 670.724 C 1047.91 669.815 1058.46 669.22 1064.45 667.285 C 1066.16 660.229 1065.1 660.864 1060.28 656.263 C 1042.2 639.011 1061.14 624.586 1077.81 621.226 z"/>
<path transform="translate(0,0)" fill="rgb(255,255,255)" d="M 1037.71 699.316 C 1038.9 699.146 1041.21 699.253 1042.51 699.266 C 1042.09 699.97 1035.84 702.51 1034.57 703.05 C 981.663 725.458 939.446 767.877 921.188 822.814 C 917.577 833.679 914.42 837.351 902.731 837.069 C 899.645 835.064 895.757 831.388 895.762 827.515 C 895.783 809.748 911.454 785.752 921.189 772.135 C 949.422 732.645 989.753 707.031 1037.71 699.316 z"/>
<path transform="translate(0,0)" fill="rgb(30,39,47)" d="M 884.239 1297.29 C 914.631 1294.23 940.682 1298.12 963.947 1318.9 C 963.846 1299.22 969.036 1300.64 987.279 1301.35 C 991.882 1301.52 1014.3 1299.03 1014.49 1306.91 C 1015.9 1365.33 1014.8 1423.98 1014.9 1482.47 C 1015.46 1494.33 1013.64 1501 999.712 1499.18 C 977.778 1496.31 963.653 1508.56 964.042 1480.76 C 958.896 1485.59 956.634 1487.4 950.825 1491.41 C 918.356 1510.7 869.009 1508.18 839.512 1485.55 C 765.837 1429.02 790.145 1312.76 884.239 1297.29 z"/>
<path transform="translate(0,0)" fill="rgb(255,255,255)" d="M 901.623 1345.19 C 931.609 1342.91 957.806 1365.28 960.26 1395.25 C 962.714 1425.22 940.504 1451.55 910.547 1454.18 C 880.339 1456.83 853.742 1434.4 851.268 1404.17 C 848.793 1373.95 871.386 1347.49 901.623 1345.19 z"/>
<path transform="translate(0,0)" fill="rgb(30,39,47)" d="M 501.336 1213.41 C 546.228 1211.68 586.519 1224.03 617.367 1258 C 622.287 1263.42 627.327 1268.59 627.874 1276.22 C 626.017 1283.14 592.02 1304.89 584.82 1303.87 C 580.178 1303.21 563.59 1285.3 556.401 1281.28 C 520.745 1261.32 473.822 1266.94 444.611 1295.76 C 427.353 1312.85 417.745 1336.21 417.973 1360.5 C 418.082 1429.13 488.324 1468.67 549.006 1440.95 C 561.99 1435.02 570.76 1426.62 580.697 1416.59 C 583.912 1415.07 587.678 1414.3 590.854 1416.14 C 600.555 1421.75 622.673 1432.89 627.048 1442.98 C 627.099 1447.9 624.69 1451.07 621.587 1454.79 C 597.575 1483.57 562.995 1501.49 525.632 1504.51 C 482.537 1508.16 441.816 1498.63 408.362 1470.23 C 379.805 1445.61 362.193 1410.65 359.4 1373.05 C 352.77 1285.01 414.57 1219.53 501.336 1213.41 z"/>
<path transform="translate(0,0)" fill="url(#Gradient2)" d="M 1568.18 1296.2 C 1625.38 1287.6 1678.69 1327.1 1687.12 1384.32 C 1695.55 1441.55 1655.9 1494.74 1598.64 1502.99 C 1541.64 1511.21 1488.73 1471.76 1480.33 1414.78 C 1471.94 1357.8 1511.23 1304.77 1568.18 1296.2 z"/>
<path transform="translate(0,0)" fill="rgb(255,255,255)" d="M 1576.27 1347.05 C 1605.13 1343.05 1631.76 1363.26 1635.67 1392.14 C 1639.58 1421.01 1619.3 1447.58 1590.41 1451.41 C 1561.64 1455.22 1535.21 1435.04 1531.31 1406.28 C 1527.42 1377.52 1547.52 1351.03 1576.27 1347.05 z"/>
<path transform="translate(0,0)" fill="url(#Gradient1)" d="M 1343.63 1297.37 C 1398.28 1288.92 1445.07 1324.61 1454.64 1377.83 C 1463.78 1428.69 1444.64 1417.34 1404.67 1417.57 L 1309.32 1418.05 C 1316.24 1436.96 1326.61 1450.89 1347.89 1455.04 C 1373.79 1460.11 1389.63 1451.55 1410.81 1438.14 C 1415.76 1440.63 1417.77 1442.34 1422.05 1445.69 C 1429.41 1452.33 1438.53 1459.7 1444.3 1467.46 C 1414.69 1510.07 1330.32 1514.59 1292.26 1481.83 C 1224.33 1423.34 1249.3 1308.89 1343.63 1297.37 z"/>
<path transform="translate(0,0)" fill="rgb(255,255,255)" d="M 1349.1 1343.33 C 1377.29 1342.18 1393.8 1350.89 1401.99 1379.11 C 1389.37 1379.51 1376.75 1379.7 1364.13 1379.69 C 1346.44 1379.13 1327.63 1379.73 1309.84 1380.03 C 1315.14 1360.46 1328.48 1346.32 1349.1 1343.33 z"/>
<path transform="translate(0,0)" fill="rgb(30,39,47)" d="M 1143.08 1437.22 C 1149.91 1420.38 1188.73 1307.19 1193.73 1303.6 C 1199.94 1299.13 1225.98 1300.45 1234.09 1300.94 C 1238.9 1301.23 1243.94 1302.1 1247.2 1305.9 C 1248 1311.54 1233.16 1345.33 1230.01 1353.03 C 1215.87 1386.38 1203.33 1421.09 1189.15 1454.5 C 1184.58 1465.27 1176.02 1489.62 1170.29 1498.74 C 1160.66 1500.17 1125.27 1499.86 1115.77 1498.78 C 1110.38 1490.33 1105.11 1474.31 1101.17 1464.51 L 1076.73 1403.53 C 1064.64 1373.26 1051.9 1343.24 1039.96 1312.91 C 1037.68 1307.12 1039.29 1303.53 1045 1301.36 C 1054.99 1301.19 1083.78 1299.8 1091.37 1302.6 C 1097.88 1309.32 1137.62 1422.14 1143.08 1437.22 z"/>
<path transform="translate(0,0)" fill="rgb(30,39,47)" d="M 826.625 890.209 C 846.258 889.561 868.638 890.011 888.398 889.985 L 1008.34 889.941 L 1320.14 890.078 C 1333.74 890.16 1355.61 888.229 1347.51 910.049 C 1344.85 917.216 1341.05 920.571 1334.75 924.543 C 1321.2 930.205 1243.35 927.929 1223.48 927.927 L 1045.38 927.826 L 906.413 927.58 C 886.064 927.515 853.439 929.169 833.699 925.513 C 822.76 923.488 806.657 899.492 826.625 890.209 z"/>
<path transform="translate(0,0)" fill="rgb(30,39,47)" d="M 737.727 1297.4 C 746.78 1296.22 784.012 1297.4 788.266 1305.99 C 788.272 1315.11 779.465 1340.8 773.926 1347.7 C 761.663 1353.43 741.548 1339.68 723.803 1356.61 C 704.219 1375.3 709.954 1392.96 709.004 1416.74 C 707.975 1442.51 710.725 1469.53 708.877 1494.62 L 708.767 1496.03 C 702.201 1501.21 665.578 1500.58 658.6 1496.82 C 654.173 1494.44 655.535 1446.8 655.784 1440.52 C 657.288 1402.71 647.517 1359.22 673.929 1327.73 C 690.2 1308.25 713.084 1299.92 737.727 1297.4 z"/>
<path transform="translate(0,0)" fill="rgb(254,126,5)" d="M 511.01 800.108 C 526.189 799.064 542.089 805.297 537.115 825.351 C 535.748 830.862 528.463 834.926 523.246 836.862 C 513.401 838.417 504.084 836.482 499.056 826.918 C 496.616 822.329 496.282 816.909 498.138 812.055 C 500.708 805.469 504.962 802.87 511.01 800.108 z"/>
</svg>